<svg enable-background="new 0 0 146 146" viewBox="0 0 146 146" xmlns="http://www.w3.org/2000/svg"><g fill="none" stroke="#00bdff"><circle cx="73" cy="73" opacity=".8" r="49.2"/><circle cx="73" cy="73" opacity=".6" r="56.9"/><circle cx="73" cy="73" opacity=".2" r="64.5"/><circle cx="73" cy="73" opacity=".05" r="72.5"/></g><circle cx="73" cy="73" fill="#37dcf2" r="42.1"/><path d="m68.9 97.5c-3.8 0-7.1-1.3-9.8-3.8-3.4-3.2-5.3-8-5.3-13.5 0-6.4 3.5-12 6-16l.4-.6c.3-.4.8-.7 1.3-.6s1 .4 1.1.9c1.7 4.8 4.2 8.5 6.5 11.8 2.5 3.7 4.7 6.9 4.7 10.4 0 2.9-2.2 4.9-5.2 4.9-1.8 0-3.4-.7-4.7-2-2.5-2.6-3.6-7.3-3.3-10.3.1-.7.7-1.2 1.4-1.1s1.3.7 1.2 1.3c-.2 2.5.7 6.5 2.6 8.5.8.8 1.7 1.2 2.7 1.2 1.6 0 2.6-.9 2.6-2.5 0-2.8-1.9-5.6-4.3-9.1-1.9-2.8-4.1-5.9-5.8-9.8-2.2 3.6-4.6 8.2-4.6 13.1 0 4.8 1.6 9 4.5 11.7 2.1 2 4.9 3.1 7.9 3.1 5.1 0 9-3.7 9-8.7s-2.9-9.3-5.8-13.5c-2.8-4.1-5.7-8.4-5.7-13.3 0-4.2 2.2-8 6.1-10.8.5-.4 1.3-.3 1.8.2 3.1 3.3 18.5 20.1 18.6 32 0 6.1-2.5 11.5-6.8 14.6-.4.3-1 .3-1.5.1-.5-.3-.7-.8-.6-1.3.7-3.6.9-4.6.9-7.3 0-7.6-4.4-14.5-8.4-20.6-1.1-1.7-2.2-3.4-3.1-5-.3-.6-.1-1.4.5-1.7s1.4-.1 1.8.5c.9 1.6 1.9 3.2 3.1 4.9 4.1 6.4 8.7 13.5 8.7 21.9 0 1.5 0 2.5-.2 3.7 1.9-2.6 3-6 3-9.8 0-8.3-9-20.8-17-29.5-1.8 1.5-4.1 4.2-4.1 8.1 0 4.2 2.6 8 5.3 12 3.1 4.5 6.2 9.1 6.2 14.8.1 6.2-5.1 11.1-11.7 11.1.1 0 .1 0 0 0z" fill="#fff"/></svg>