<svg enable-background="new 0 0 183 122" viewBox="0 0 183 122" xmlns="http://www.w3.org/2000/svg"><path d="m181.7 70.9c-5.7 22.7-28.6 36.5-51.3 30.8-22.6-5.7-36.4-28.6-30.8-51.3s28.6-36.5 51.3-30.8c22.7 5.6 36.5 28.6 30.8 51.3z" fill="#37dcf2"/><path d="m135.1 88.1c-4.2 0-8-1.5-11-4.2-3.8-3.6-5.9-8.9-5.9-15.1 0-7.2 3.9-13.4 6.7-18l.4-.7c.3-.5.9-.7 1.4-.7.6.1 1.1.4 1.3 1 1.9 5.4 4.7 9.6 7.2 13.2 2.8 4.1 5.3 7.7 5.3 11.7 0 3.2-2.5 5.5-5.9 5.5-2 0-3.8-.8-5.3-2.3-2.9-2.9-4-8.2-3.7-11.6.1-.8.8-1.3 1.6-1.3.8.1 1.4.7 1.3 1.5-.3 2.8.8 7.3 3 9.5.9.9 1.9 1.4 3.1 1.4 1.8 0 2.9-1.1 2.9-2.8 0-3.1-2.1-6.2-4.8-10.2-2.2-3.2-4.6-6.7-6.5-11-2.5 4-5.2 9.2-5.2 14.7 0 5.4 1.8 10.1 5.1 13.2 2.4 2.2 5.5 3.4 8.9 3.4 5.8 0 10.1-4.2 10.1-9.7 0-5.6-3.3-10.5-6.5-15.1s-6.4-9.4-6.4-14.9c0-4.7 2.4-9 6.8-12.1.6-.4 1.5-.4 2 .2 3.5 3.6 20.8 22.5 20.8 35.9 0 6.9-2.8 12.9-7.6 16.4-.5.4-1.2.4-1.7.1s-.8-.9-.7-1.5c.8-4 1-5.2 1-8.1 0-8.5-5-16.3-9.4-23.1-1.3-2-2.5-3.8-3.5-5.6-.4-.7-.1-1.5.6-1.9s1.6-.1 2 .6c1 1.7 2.2 3.6 3.4 5.5 4.6 7.1 9.8 15.2 9.8 24.5 0 1.6 0 2.8-.2 4.1 2.2-2.9 3.3-6.8 3.3-11 0-9.3-10.1-23.4-19.1-33.1-2 1.7-4.6 4.7-4.6 9 0 4.7 2.9 8.9 6 13.4 3.4 5 7 10.2 7 16.6.2 7.1-5.6 12.5-13 12.6.1 0 .1 0 0 0z" fill="#fff"/><path d="m22.9 62.9c12.7 0 22.9-10.2 22.9-22.9s-10.2-22.9-22.9-22.9c-12.7.1-22.9 10.3-22.9 23 0 12.6 10.2 22.8 22.9 22.8z" fill="#2775ca" fill-opacity=".05"/><path d="m22.9 62.9c12.7 0 22.9-10.2 22.9-22.9s-10.2-22.9-22.9-22.9c-12.7.1-22.9 10.3-22.9 23 0 12.6 10.2 22.8 22.9 22.8z" fill="#2775ca"/><path d="m29.2 43.7c0-3.3-2-4.5-6.1-5-2.9-.4-3.5-1.1-3.5-2.5 0-1.3 1-2.2 2.9-2.2 1.7 0 2.7.6 3.2 2 .1.3.4.5.7.5h1.6c.4 0 .7-.3.7-.7v-.1c-.4-2.1-2.1-3.7-4.3-3.9v-2.3c0-.4-.3-.7-.8-.8h-1.4c-.4 0-.7.3-.8.8v2.2c-2.9.4-4.7 2.3-4.7 4.7 0 3.2 1.9 4.4 6 4.9 2.7.5 3.6 1.1 3.6 2.6s-1.3 2.6-3.2 2.6c-2.5 0-3.4-1.1-3.7-2.5-.1-.4-.4-.6-.7-.6h-1.7c-.4 0-.7.3-.7.7v.1c.4 2.4 1.9 4.1 5.1 4.6v2.3c0 .4.3.7.8.8h1.4c.4 0 .7-.3.8-.8v-2.3c2.9-.5 4.8-2.5 4.8-5.1z" fill="#fff"/><path d="m18 53.6c-7.5-2.6-11.3-10.9-8.5-18.2 1.4-4 4.6-7 8.5-8.5.4-.2.6-.5.6-.9v-1.3c0-.4-.2-.7-.6-.8-.1 0-.3 0-.4.1-9.1 2.8-14 12.4-11.2 21.5 1.7 5.3 5.8 9.4 11.2 11.1.4.2.8 0 .9-.4.1-.1.1-.2.1-.4v-1.3c0-.3-.3-.7-.6-.9zm10.1-29.6c-.4-.2-.8 0-.9.4-.1.1-.1.2-.1.4v1.3c0 .4.3.8.6.9 7.5 2.7 11.3 11 8.6 18.3-1.4 4-4.6 7-8.5 8.5-.4.2-.6.5-.6.9v1.3c0 .4.2.7.6.8.1 0 .3 0 .4-.1 9.1-2.8 14-12.4 11.2-21.5-1.8-5.4-6-9.5-11.3-11.2z" fill="#fff"/><path d="m56 59.5h30.9" fill="none" stroke="#cdcdcd" stroke-linecap="round" stroke-width="1.5446"/><path d="m83.5 54.9 4.6 4.6-4.6 4.5" fill="none" stroke="#cdcdcd" stroke-linecap="round" stroke-width="1.5446"/><path d="m22.9 58.3c12.6 0 22.9 10.2 22.9 22.9 0 12.6-10.2 22.9-22.9 22.9s-22.9-10.3-22.9-22.9 10.2-22.9 22.9-22.9z" fill="#f5ac37"/><path d="m23.7 82.8h8.7c.2 0 .3 0 .3-.2.1-.9.1-1.8 0-2.7 0-.2-.1-.2-.3-.2h-17.3c-.2 0-.3.1-.3.3v2.5c0 .3 0 .3.3.3zm8-6.1c0-.1 0-.1 0-.2-.1-.3-.3-.6-.5-.9-.3-.5-.7-.9-1.1-1.3-.2-.2-.4-.5-.7-.6-1.2-1.1-2.7-1.8-4.3-2.2-.8-.2-1.6-.3-2.4-.3h-7.7c-.2 0-.2.1-.2.3v5.1c0 .2 0 .3.3.3h16.5c0-.1.2-.1.1-.2zm0 9.1c-.2 0-.5 0-.7 0h-15.9c-.2 0-.3 0-.3.3v5c0 .2 0 .3.3.3h7.3c.3 0 .7 0 1-.1 1.1-.1 2.1-.3 3.1-.7.4-.1.7-.3 1-.5h.1c1.7-.9 3.1-2.3 4-4 .1-.1.2-.3.1-.3zm-19.7 8.1v-3.4-1.1-3.4c0-.2 0-.2-.2-.2h-3.1c-.2 0-.2 0-.2-.2v-2.7h3.3c.2 0 .3 0 .3-.2v-2.7c0-.2 0-.2-.2-.2h-3.2c-.2 0-.2 0-.2-.2v-2.5c0-.2 0-.2.2-.2h3.1c.2 0 .3 0 .3-.3v-7.7c0-.2 0-.3.3-.3h10.6c.8 0 1.6.1 2.3.3 1.6.3 3.1.9 4.5 1.7.9.5 1.8 1.2 2.5 1.9.6.6 1.1 1.2 1.5 1.9s.8 1.4 1.1 2.2c0 .2.2.3.4.3h2.6c.3 0 .3 0 .3.3v2.3c0 .2-.1.3-.3.3h-2c-.2 0-.3 0-.2.3.1.9.1 1.7 0 2.6 0 .2 0 .3.3.3h2.3c.1.1 0 .3 0 .4v.5 1.7c0 .2-.1.3-.3.3h-2.7c-.2 0-.4.1-.4.3-.6 1.7-1.7 3.2-3 4.4-.5.4-1 .8-1.5 1.2-.6.3-1.1.7-1.7.9-1.1.5-2.2.8-3.4 1.1-1.1.2-2.2.3-3.3.3z" fill="#fefefd"/></svg>