<svg enable-background="new 0 0 116 125" viewBox="0 0 116 125" xmlns="http://www.w3.org/2000/svg"><circle cx="36.3" cy="36.3" fill="#e6007a" fill-opacity=".05" r="36.3"/><path d="m36-.2c20 0 36.1 16.2 36.1 36.1 0 20-16.1 36.1-36.1 36.1-19.9 0-36.1-16.1-36.1-36.1 0-19.9 16.2-36.1 36.1-36.1z" fill="#f5ac37"/><path d="m37.4 38.5h13.7c.3 0 .4 0 .5-.4.1-1.4.1-2.8 0-4.2 0-.3-.1-.4-.4-.4h-27.4c-.3 0-.4.1-.4.4v4c0 .5 0 .5.5.5h13.5zm12.6-9.7c0-.1 0-.2 0-.3-.2-.5-.5-1-.8-1.4-.5-.8-1-1.5-1.7-2.1-.3-.4-.6-.7-1-1-2-1.7-4.3-2.8-6.8-3.4-1.3-.3-2.5-.4-3.8-.4h-12.2c-.3 0-.4.1-.4.4v8c0 .3 0 .4.4.4h26s.2 0 .3-.2zm0 14.4c-.4 0-.8 0-1.2 0h-25c-.3 0-.5 0-.5.5v7.8c0 .4 0 .5.5.5h11.6c.6 0 1.1 0 1.6-.1 1.7-.1 3.3-.5 4.9-1.1.6-.2 1.1-.5 1.6-.8h.2c2.7-1.4 4.9-3.6 6.3-6.3 0-.1.2-.4 0-.5zm-31.2 12.8v-.1-5.3-1.8-5.3c0-.3 0-.3-.4-.3h-4.9c-.3 0-.4 0-.4-.4v-4.3h5.2c.3 0 .4 0 .4-.4v-4.2c0-.3 0-.3-.4-.3h-4.9c-.3 0-.4 0-.4-.4v-4c0-.2 0-.3.4-.3h4.9c.3 0 .4 0 .4-.4v-12.2c0-.4 0-.5.5-.5h16.9c1.2 0 2.4.2 3.7.4 2.5.5 4.9 1.3 7.1 2.6 1.4.9 2.8 1.9 4 3.1.9.9 1.7 1.9 2.4 3s1.3 2.2 1.8 3.5c.1.3.4.5.7.5h4c.5 0 .5 0 .5.5v3.7c0 .4-.1.5-.5.5h-3.1c-.3 0-.4 0-.4.4.1 1.4.1 2.8 0 4.1 0 .4 0 .4.4.4h3.6c.2.2 0 .4 0 .6v.8 2.7c0 .4-.1.5-.5.5h-4.3c-.2-.1-.5.1-.5.4-1 2.6-2.6 5-4.7 6.9-.8.7-1.6 1.3-2.4 1.9-.9.5-1.8 1.1-2.7 1.5-1.7.8-3.5 1.3-5.3 1.7-1.9.4-3.6.5-5.4.5z" fill="#fefefd"/><path d="m79.7 124.9c20.1 0 36.3-16.2 36.3-36.3s-16.2-36.3-36.3-36.3-36.2 16.3-36.2 36.4 16.1 36.2 36.2 36.2z" fill="#2775ca" fill-opacity=".05"/><path d="m79.7 124.9c20.1 0 36.3-16.2 36.3-36.3s-16.2-36.3-36.3-36.3-36.2 16.3-36.2 36.4 16.1 36.2 36.2 36.2z" fill="#2775ca"/><path d="m89.8 94.5c0-5.3-3.2-7.1-9.6-7.9-4.6-.6-5.5-1.8-5.5-3.9s1.5-3.5 4.6-3.5c2.7 0 4.3.9 5 3.2.2.5.6.8 1.1.8h2.4c.6 0 1.1-.5 1.1-1.1v-.2c-.6-3.3-3.4-5.9-6.9-6.2v-3.7c0-.6-.5-1.1-1.2-1.2h-2.3c-.6 0-1.1.5-1.2 1.2v3.5c-4.6.6-7.5 3.6-7.5 7.4 0 5 3.1 7 9.5 7.7 4.3.8 5.6 1.7 5.6 4.1s-2.1 4.1-5 4.1c-4 0-5.3-1.7-5.8-3.9-.2-.6-.6-.9-1.1-.9h-2.6c-.6 0-1.1.5-1.1 1.1v.2c.6 3.8 3.1 6.5 8.1 7.3v3.6c0 .6.5 1.1 1.2 1.2h2.4c.6 0 1.1-.5 1.2-1.2v-3.6c4.6-.8 7.6-4 7.6-8.1z" fill="#fff"/><path d="m72 110.2c-11.8-4.2-17.9-17.3-13.5-28.9 2.3-6.3 7.3-11.1 13.5-13.4.6-.3.9-.8.9-1.5v-2.1c0-.6-.3-1.1-.9-1.2-.2 0-.5 0-.6.2-14.4 4.5-22.3 19.7-17.7 34 2.7 8.4 9.2 14.9 17.7 17.6.6.3 1.2 0 1.4-.6.2-.2.2-.3.2-.6v-2.1c-.1-.5-.5-1.1-1-1.4zm16.1-47c-.6-.3-1.2 0-1.4.6-.2.2-.2.3-.2.6v2.1c0 .6.5 1.2.9 1.5 11.8 4.2 17.9 17.3 13.5 28.9-2.3 6.3-7.3 11.1-13.5 13.4-.6.3-.9.8-.9 1.5v2.1c0 .6.3 1.1.9 1.2.2 0 .5 0 .6-.2 14.4-4.5 22.3-19.7 17.7-34-2.6-8.5-9.3-15-17.6-17.7z" fill="#fff"/><g fill="none" stroke="#cdcdcd" stroke-linecap="round" stroke-width="1.5914"><path d="m106.1 51.4c-1.3-9-8.8-27.5-28.4-29.2"/><path d="m80.6 25.4-3.1-3.3 3.3-3.1"/><path d="m10.9 73.1c1.3 9 8.8 27.5 28.4 29.2"/><path d="m36.4 99.1 3.1 3.3-3.3 3.1"/></g></svg>