<?xml version="1.0" encoding="utf-8"?>
<!-- Generator: Adobe Illustrator 27.3.1, SVG Export Plug-In . SVG Version: 6.00 Build 0)  -->
<svg version="1.1" id="Layer_1" xmlns="http://www.w3.org/2000/svg" xmlns:xlink="http://www.w3.org/1999/xlink" x="0px" y="0px"
	 viewBox="0 0 800 800" style="enable-background:new 0 0 800 800;" xml:space="preserve">
<style type="text/css">
	.st0{display:none;}
	.st1{display:inline;}
	.st2{display:inline;clip-path:url(#SVGID_00000026869675203187398400000000543360269232262291_);}
	.st3{fill:url(#SVGID_00000134967213525682384560000005185365209670319023_);}
	.st4{display:inline;opacity:0.24;clip-path:url(#SVGID_00000054974325584782219120000005627810456598345385_);}
	.st5{fill:#151A46;}
	.st6{clip-path:url(#SVGID_00000174561434977065390210000015478172843904581290_);}
	.st7{fill:#4183B5;}
	.st8{display:inline;clip-path:url(#SVGID_00000156584502258531388130000005178903021273477788_);}
	.st9{fill:url(#SVGID_00000154407233937777009090000000631671979608639918_);}
	.st10{display:none;fill:#F57F20;}
	.st11{display:none;fill:#F4B72E;}
	.st12{display:none;fill-rule:evenodd;clip-rule:evenodd;fill:#FFFFFF;}
	.st13{filter:url(#g);}
	.st14{display:none;mask:url(#h_00000106106258392908050330000016537594515225974942_);}
	.st15{clip-path:url(#SVGID_00000005263378124644994570000002854345756203652795_);}
	.st16{clip-path:url(#SVGID_00000165924679247737683520000008258183991795722928_);}
	.st17{opacity:0.32;clip-path:url(#SVGID_00000071520234276767011370000004494212083139126207_);}
	.st18{fill:#2C374B;}
	.st19{fill:#24A2EE;}
	.st20{fill-rule:evenodd;clip-rule:evenodd;fill:#98BCDC;}
	.st21{fill:#FFFFFF;}
</style>
<filter  color-interpolation-filters="sRGB" filterUnits="userSpaceOnUse" height="32766" id="g" width="722.29" x="29.43" y="-8592">
	<feFlood  flood-color="#fff" result="bg"></feFlood>
	<feBlend  in="SourceGraphic" in2="bg" mode="normal"></feBlend>
</filter>
<g class="st0">
	<defs>
		<path id="SVGID_1_" d="M-0.7,400.5c0,220.7,178.9,399.6,399.6,399.6s399.6-178.9,399.6-399.6S619.6,0.8,398.9,0.8
			S-0.7,179.8-0.7,400.5"/>
	</defs>
	<clipPath id="SVGID_00000011745048061233068700000000654508552937227171_" class="st1">
		<use xlink:href="#SVGID_1_"  style="overflow:visible;"/>
	</clipPath>
	<g style="display:inline;clip-path:url(#SVGID_00000011745048061233068700000000654508552937227171_);">
		
			<linearGradient id="SVGID_00000127734040039145265200000002147921523706663847_" gradientUnits="userSpaceOnUse" x1="-21.9722" y1="3.3255" x2="-17.4226" y2="3.3255" gradientTransform="matrix(0 175.68 -175.68 0 983.1511 3860.9199)">
			<stop  offset="0" style="stop-color:#41B9EA"/>
			<stop  offset="3.000000e-02" style="stop-color:#3EADDC"/>
			<stop  offset="0.15" style="stop-color:#3486B0"/>
			<stop  offset="0.27" style="stop-color:#2C668B"/>
			<stop  offset="0.39" style="stop-color:#264B6C"/>
			<stop  offset="0.52" style="stop-color:#203655"/>
			<stop  offset="0.66" style="stop-color:#1D2744"/>
			<stop  offset="0.81" style="stop-color:#1B1F3A"/>
			<stop  offset="1" style="stop-color:#1A1C37"/>
		</linearGradient>
		<path style="fill:url(#SVGID_00000127734040039145265200000002147921523706663847_);" d="M-0.7,0.8h799.3v799.3H-0.7L-0.7,0.8z"/>
	</g>
</g>
<g class="st0">
	<defs>
		<rect id="SVGID_00000091696449971233562710000005892912418051400121_" x="-0.7" y="-8.2" width="799.5" height="808.3"/>
	</defs>
	<clipPath id="SVGID_00000015316261710354667210000014504163872228051103_" class="st1">
		<use xlink:href="#SVGID_00000091696449971233562710000005892912418051400121_"  style="overflow:visible;"/>
	</clipPath>
	<g style="display:inline;opacity:0.24;clip-path:url(#SVGID_00000015316261710354667210000014504163872228051103_);">
		<path class="st5" d="M798.6,400.5c0,220.7-178.9,399.6-399.6,399.6S-0.7,621.2-0.7,400.5S178.2,0.8,398.9,0.8
			S798.6,179.8,798.6,400.5"/>
		<g>
			<defs>
				<path id="SVGID_00000028324847649990234890000001285013374148223388_" d="M798.6,400.5c0,220.7-178.9,399.6-399.6,399.6
					S-0.7,621.2-0.7,400.5S178.2,0.8,398.9,0.8S798.6,179.8,798.6,400.5"/>
			</defs>
			<clipPath id="SVGID_00000034049206805448982340000015575118380322658984_">
				<use xlink:href="#SVGID_00000028324847649990234890000001285013374148223388_"  style="overflow:visible;"/>
			</clipPath>
			<g style="clip-path:url(#SVGID_00000034049206805448982340000015575118380322658984_);">
				<path class="st7" d="M399.3,0.9C179.2-1.6-1,177.3-0.7,402.2c0.1,49.1,14.5,132.7,41.8,175.2c5.4-0.5,116.4-22,86.3-32.3
					c-46.7-15.8,12.5-34.3,4.2-65.8c-7.2-27.5-101.8-5.1-105-32.3c-1.5-12.8,29.5-20.4,57.3-24.3c48.1-6.7,23.7-39.4,47.7-69.7
					c19.4-24.6,40.6-30.1,40-66.1c-0.7-44.3-45.8-28-48.1-60.8c-0.9-13.1,9.8-11.9,5.7-31.7c-3.4-16.6-75-11.8-76.4-12.3
					c13.1-20.4,29.8-47.7,46.7-65.5c7.7,6.5,36.4,5.9,44.4,32.2c3.7,12.4,12,22.9,17.9,34.3c10.6,20.6,26.7,34,50.2,35.9
					c11.3,0.9,34.4,0.6,44.4-14c14.4-21.1-6.1-21.1-13-37c-2.7-6.4,0.5-11.2,6.7-13.5c7-2.5,15.3,0.3,18.7,6.9
					c5.8,11.5,29.1,5.2,25.2-16.5c-5.2-29.6-25.8-127.2-11.6-132.9c6.2-2.7,12.6-5.1,19.1-7.1c0,3-3.4,44.1,4,78.2
					c7.1,33.1,25.5,57.2,39.5,63.9c13.4,6.4,32.4,3,38.5-8.7c8.1-15.6-6.3-30.7-6.3-45.5s13.4-24.5,8.9-42
					c-4.5-17.9,0.9-39.1,8.6-56.3c0.6-1.2,2.2-2.7,3.4-2.7c9.9-0.2,19.9-0.1,31-0.1c-2.6,4.8-12.8,24.4-14.3,28.2
					c-9,23.1,8.2,36,1.8,51.7c-5.7,13.7-12.5,27.7-5.5,43.4c7.3,16.4,43.1,16.1,36.2-15.2c-1.5-6.9,2.8-13.4,9.5-15.5
					c11.7-3.7,21.6,1.5,26.1,12.9c5.2,13.2,5.9,27.1,1.4,40.4c-4.2,12.3,5.1,22.6,17.2,21.6c28.2-2.2,49.4-16.1,57.5-45
					c5.8-20.8,11-41.7,9.6-63.6c-0.1-2.1-0.9-13.9-0.9-16.5c1.6,0.4,42.4,21.5,41.5,22.7c-20.2,26-6.6,49.4-9.8,65.6
					c-6.3,31.9-23.2,24.7-34.1,37.7c-8.1,9.5-8.2,25.2-3.4,31.6c11.9,15.8,39.9,10.1,23.1,32.5c-9.8,13.2-3.8,24.9,12.4,29.4
					c22.4,6.2,44.9,4.9,65.5-4.5c44.5-20.1,60.2-65.6,53.7-92.9c-7.1-29.7,41.8,53.5,45,67.1c18.1,76-129.8,42-122.2,109.2
					c5.3,47.1,52.9,78.9,109.8,87.2c21.8,3.2,23.1,34.5,1.5,38.6c-25.3,4.8-74.5-1.2-88.1,16.6c-17.2,22.6-5,55.4-29.6,61.9
					c-86.7,22.8,123.2,42.6,123.2,42.6c9.3-16.1,47.6-98.3,42.2-194.4C785.6,161.4,612.4,3.4,399.3,0.9 M90,302.7
					c4.7,3,8.3,7.1,8,13.2c-0.3,5.9-4.5,8.7-9.2,11c-10.5,5-24.1,7.2-30.3,5.7c-9.7-2.4-14.2-10-9.6-18.9
					C56.1,300,77.1,294.4,90,302.7 M663.9,129.9c-4.6,13.4-22.5,6.5-22.5-7.4c0-9.4,2.4-20.7,18.3-27.1c6.3,5.6,14.5,11.1,21.3,17.2
					C676.3,118.5,668.2,117.5,663.9,129.9 M724.5,343.3c-2.3,21.2-50.6,16.4-61-4.4c-3.2-6.4,2.4-12.8,9.2-10.5
					C692.4,335.1,727.1,319.4,724.5,343.3"/>
			</g>
		</g>
	</g>
</g>
<g class="st0">
	<defs>
		<path id="SVGID_00000165946914474137477910000002823132998211961218_" d="M72.4,632.9c1.4,2,2.8,4,4.2,5.9
			c72.8,97.9,189.3,161.3,320.8,161.3c128.6,0,243-60.8,316.1-155.2c3.1-4,6-8,9-12.1C516.6,536.3,278.4,536.3,72.4,632.9"/>
	</defs>
	<clipPath id="SVGID_00000070801163662536410060000012917581801525989795_" class="st1">
		<use xlink:href="#SVGID_00000165946914474137477910000002823132998211961218_"  style="overflow:visible;"/>
	</clipPath>
	<g style="display:inline;clip-path:url(#SVGID_00000070801163662536410060000012917581801525989795_);">
		
			<linearGradient id="SVGID_00000137832509397375494110000000185603220087992474_" gradientUnits="userSpaceOnUse" x1="-20.9214" y1="-2.4654" x2="-16.3715" y2="-2.4654" gradientTransform="matrix(0 -52.67 52.67 0 527.3021 -302.09)">
			<stop  offset="0" style="stop-color:#1A1C37"/>
			<stop  offset="0.47" style="stop-color:#1A1C37"/>
			<stop  offset="0.68" style="stop-color:#191B33"/>
			<stop  offset="0.88" style="stop-color:#151728"/>
			<stop  offset="1" style="stop-color:#11131D"/>
		</linearGradient>
		<path style="fill:url(#SVGID_00000137832509397375494110000000185603220087992474_);" d="M72.4,560.5h650v239.6h-650L72.4,560.5z"
			/>
	</g>
</g>
<path class="st10" d="M575.1,396.2c0,95.5-77.4,172.9-172.9,172.9s-172.9-77.4-172.9-172.9s77.4-172.9,172.9-172.9l0,0
	C497.7,223.3,575.1,300.7,575.1,396.2"/>
<path class="st11" d="M401.1,621.7c122.2,0,221.4-99.1,221.4-221.3S523.3,179,401.1,179s-221.3,99.1-221.3,221.4
	S278.8,621.7,401.1,621.7L401.1,621.7z"/>
<path class="st12" d="M308.1,289.7h90.6c55.1,0,96.9,29.3,112.5,71.9h28.2v25.8h-22.3c0.4,4.1,0.7,8.3,0.7,12.4v0.6
	c0,4.7-0.3,9.4-0.8,14h22.5v25.7h-28.8c-16,42-57.4,71-111.9,71h-90.6v-71h-31.5v-25.8h31.5v-27h-31.5v-25.8h31.5V289.7z M333.4,440
	v47.9h65.3c40.3,0,70.2-19.2,84.2-47.9H333.4z M490.6,414.3H333.4v-27h157.3c0.6,4.3,0.9,8.7,0.9,13v0.7
	C491.6,405.5,491.3,409.9,490.6,414.3L490.6,414.3z M398.7,312.7c40.5,0,70.5,19.7,84.4,48.8H333.4v-48.8L398.7,312.7L398.7,312.7z"
	/>
<defs>
	<filter id="Adobe_OpacityMaskFilter" filterUnits="userSpaceOnUse" x="29.4" y="556.7" width="722.3" height="271.8">
		<feColorMatrix  type="matrix" values="1 0 0 0 0  0 1 0 0 0  0 0 1 0 0  0 0 0 1 0"/>
	</filter>
</defs>
<mask maskUnits="userSpaceOnUse" x="29.4" y="556.7" width="722.3" height="271.8" id="h_00000106106258392908050330000016537594515225974942_">
	<g class="st13">
	</g>
</mask>
<g class="st14">
	<g class="st1">
		<defs>
			<rect id="SVGID_00000150071633419395467970000011995147503374123682_" x="29.4" y="556.8" width="722.3" height="271.8"/>
		</defs>
		<clipPath id="SVGID_00000158713507454016538550000008976101192180173199_">
			<use xlink:href="#SVGID_00000150071633419395467970000011995147503374123682_"  style="overflow:visible;"/>
		</clipPath>
		<g style="clip-path:url(#SVGID_00000158713507454016538550000008976101192180173199_);">
			<g>
				<defs>
					<path id="SVGID_00000172440028259974160090000016407004507234496396_" d="M396.3,800c128.6,0,243-60.8,316.1-155.2
						c3.1-4,6.1-8,9-12.1c-205.9-96.5-444.1-96.5-650,0c1.4,2,2.8,4,4.2,5.9C148.4,736.6,265,800,396.3,800"/>
				</defs>
				<clipPath id="SVGID_00000081626083814653978350000010761631919882703268_">
					<use xlink:href="#SVGID_00000172440028259974160090000016407004507234496396_"  style="overflow:visible;"/>
				</clipPath>
				<g style="clip-path:url(#SVGID_00000081626083814653978350000010761631919882703268_);">
					<g>
						<defs>
							<rect id="SVGID_00000113325384426737651460000014773279604990029444_" x="29.4" y="556.8" width="722.3" height="271.8"/>
						</defs>
						<clipPath id="SVGID_00000035499161685927185820000018224057256566623381_">
							<use xlink:href="#SVGID_00000113325384426737651460000014773279604990029444_"  style="overflow:visible;"/>
						</clipPath>
						<g style="opacity:0.32;clip-path:url(#SVGID_00000035499161685927185820000018224057256566623381_);">
							<path class="st5" d="M94.8,689.3c4,4.6,7.8,9.3,11.6,14l1.3,1.2c17.1,15.9,33.7,32.3,50.9,48.1c8.4,7.7,17.1,15.3,25.7,22.8
								c0.7,0.6,1.3,1.1,1.8,1.6c2.2,1.5,4.1,2.7,4.2,2.7c7,4.8,14.4,8.6,21.6,13.1c0.9,0.6,1.6,1,2.2,1.5c2.3,0.7,4.3,1.2,4.6,1.4
								c20,6.7,40.9,9.5,61.6,13c11.6,1.9,23.2,3.8,34.9,5.7l11.4,1.7c-3.9-0.6-6.2-1,4.1,0.6c0.8,0.1,1.4,0.2,1.9,0.3l1.1,0.1
								c0.8-0.1,1.4-0.2,1.8-0.3c38.9-7.5,46.6,10.1,86.3,11.6c16.3,0.6,63-21.2,79.3-21.3c9,0,17.9-0.4,26.9-0.8
								c1.7-0.1,3-0.1,4.2-0.2c1.5-0.3,3.6-0.7,6.5-1.2c5-0.9,10.1-1.4,15.1-1.7c0.3-0.2,0.5-0.4,0.7-0.5
								c10.3-8.2,20.6-16.3,31.2-24.1c10.4-7.5,21.4-14.2,32.8-19.9c11.2-5.8,22.2-11.7,33-18c8.8-5.1,2.8-19.7,11.8-26.8
								c0.5-0.8,13.7-1.6,17.4-4.8c3.3-2.8,10.5-5.5,13.7-8.4c3.6-5.2,7.5-8.1,10.8-13.5c9.2-15,20.2-25.6,27.7-41.4
								c1.2-3.2,2.5-6.3,3.8-9.5c3.2-8.2,6.2-16.5,9.1-24.8c2-5.8,4-11.7,5.9-17.6c-22.4-3.8-43.9-4.8-60.6-1
								c-31.5,7,47.5,52,11.9,93.4c-25.1,29.2-80.4-10.8-113.4,14.2c-35.8,27.2-2.2,69.2-49.7,84.5c-41.9,13.5-67.6-33.1-146.6-33.7
								c-78.1-0.6-105.4,45.5-147.1,31.4c-47.2-16-13-57.6-48.4-85.3C169.1,675,122.3,702.7,94.8,689.3L94.8,689.3"/>
							<path class="st5" d="M33.8,604.5c0.5,1.7,1.2,3.4,1.8,5c7.2,9.2,11.2,24.3,17.5,34.2c1.2,1.9,2.5,3.8,3.7,5.7
								c1.7,2.4,2.8,3.9,3.4,4.8c2.1,2,4.2,3.9,5.6,5.3c4.4,4.7,8.9,9.2,13.5,13.7c-19.5-39.3,48.1-78,18.8-85
								c-18.6-4.5-43.4-3.1-68.7,1.5C30.8,594.6,32.2,599.5,33.8,604.5"/>
							<path class="st5" d="M141.2,654c14.4,12,63.2-15.5,91.9,6.5c22.7,17.3,8.6,57.7,41.6,69.2c44.6,15.5,61.4-21.2,120-20.7
								c47.8,0.4,64,38.5,110.6,22.5c33-11.3,19.7-51.5,42.7-68.5c29.1-21.5,77.4,6.7,92-5c34.4-27.7-73.8-88.9,23.4-83.7
								c-21.9-13.1-76.8-21.1-105.7-5.9c-17.5,9.2,40,28.2,24.3,52.8c-9.4,14.8-45.9-6.6-74.1,11c-24.3,15.1-7.5,42.2-28.1,50.2
								c-17.5,6.8-40-18-89.3-17.6c-49.3-1.2-72.1,23.3-89.6,16.2c-20.5-8.4-3.2-35.1-27.3-50.7c-27.8-18.1-64.6,2.7-73.9-12.3
								c-15.2-24.8,42.5-42.9,25.1-52.4c-28.7-15.7-83.6-8.5-105.8,4.3C216.4,566.2,107.3,625.7,141.2,654"/>
						</g>
					</g>
				</g>
			</g>
		</g>
	</g>
</g>
<path class="st18" d="M400,800c223,0,400-180.5,400-400C800,177,619.5,0,400,0C177,0,0,180.5,0,400C0,619.5,180.5,800,400,800z"/>
<path class="st12" d="M522.5,322.2c-2-2-97.9-59.7-109.7-63.6c-3.9-2-13.7-4-19.6-2c-5.9,2-107.7,61.7-111.7,65.6c-2,2-3.9,6-5.9,8
	c-2,4-2,6-2,75.6v71.6l13.7,8c7.8,4,13.7,8,13.7,8c2,0,94-149.2,94-151.2c0-2-21.5-2-27.4,0c-7.8,2-13.7,6-17.6,9.9
	c-2,2-13.7,21.9-29.4,43.8c-13.7,21.9-25.5,41.8-25.5,41.8s0-19.9,0-47.7v-49.7l2-2c3.9-4,103.8-61.7,107.7-61.7
	c2,0,3.9,0,27.4,13.9c7.8,4,29.4,15.9,47,27.8c17.6,9.9,33.3,19.9,35.3,21.9l2,2v103.4l-49-77.6c-2-4-3.9-8-5.9-9.9l0,0l0,0l0,0
	c0,0-2,4-13.7,23.9c-2,2-3.9,6-3.9,8l-2,4l0,0l0,0l2,2l2,2c0,0,0,2,2,2l3.9,6c0,0,0,2,2,2c2,2,3.9,6,3.9,8c0,0,0,0,0,2l41.1,67.6
	l-3.9,2c-2,2-3.9,2-5.9,2l-50.9-79.6l-2-2l-3.9,8l0,0l-19.6,31.8l0,0l39.2,63.6c-5.9,4-39.2,27.8-41.1,27.8c-2,0-47-29.8-45.1-31.8
	c0,0,13.7-23.9,29.4-51.7l0,0c13.7-23.9,31.3-53.7,43.1-73.6c13.7-23.9,19.6-35.8,19.6-35.8s-9.8,0-21.5,0h-19.6l-45.1,75.6
	c-15.7,27.8-31.3,53.7-39.2,67.6l0,0c-13.7,2-17.6,6-17.6,6l-2,4l35.3,19.9c19.6,11.9,37.2,21.9,41.1,23.9c5.9,4,15.7,4,19.6,4
	c3.9-2,105.8-61.7,111.7-65.6c2-2,3.9-4,5.9-8l2-6v-65.6v-65.6l-2-4C526.4,328.2,522.5,324.2,522.5,322.2z M510.8,443.5L510.8,443.5
	L510.8,443.5L510.8,443.5z"/>
<path class="st19" d="M601.8,470.8L495.6,308l-38.9,63.7l102.7,166.4l46-21.2L601.8,470.8z"/>
<path class="st19" d="M552.2,559.3L446,396.5l-46,70.8l85,134.5l53.1-21.2L552.2,559.3z"/>
<path class="st20" d="M205.3,286.7L400,173.5l194.7,113.3v226.5L400,626.5l-145.1-81.4L237.2,577l159.3,92c3.5,3.5,7.1,3.5,10.6,0
	l223-127.4c3.5-3.5,7.1-7.1,7.1-10.6V276.1c0-3.5-3.5-7.1-7.1-10.6l-223-127.4c-3.5-3.5-7.1-3.5-10.6,0l-223,123.9
	c-3.5,3.5-7.1,7.1-7.1,10.6v254.9c0,3.5,3.5,7.1,7.1,10.6l46,24.8l21.2-31.9l-31.9-17.7V286.7H205.3z"/>
<path class="st21" d="M485,286.7h-74.3L237.2,569.9l60.2,35.4L485,286.7z"/>
<path class="st21" d="M297.3,315c17.7-28.3,67.3-28.3,88.5-24.8L215.9,562.8c-7.1-3.5-21.2-10.6-31.9-17.7
	c-14.2-7.1-17.7-7.1-17.7-17.7v-14.2C205.3,456.6,279.6,343.4,297.3,315z"/>
</svg>
