<svg width="28" height="28" viewBox="0 0 28 28" fill="none" xmlns="http://www.w3.org/2000/svg">
<path d="M14 28C21.732 28 28 21.732 28 14C28 6.26801 21.732 0 14 0C6.26801 0 0 6.26801 0 14C0 21.732 6.26801 28 14 28Z" fill="#627EEA"/>
<path d="M13.8408 3.5V11.2612L20.4007 14.1925L13.8408 3.5Z" fill="white" fill-opacity="0.602"/>
<path d="M13.8408 3.5L7.28003 14.1925L13.8408 11.2612V3.5Z" fill="white"/>
<path d="M13.8408 19.2219V24.4956L20.4051 15.4139L13.8408 19.2219Z" fill="white" fill-opacity="0.602"/>
<path d="M13.8408 24.4956V19.2211L7.28003 15.4139L13.8408 24.4956Z" fill="white"/>
<path d="M13.8408 18.0013L20.4007 14.1924L13.8408 11.2629V18.0013Z" fill="white" fill-opacity="0.2"/>
<path d="M7.28003 14.1924L13.8408 18.0013V11.2629L7.28003 14.1924Z" fill="white" fill-opacity="0.602"/>
</svg>
