<svg width="195" height="41" viewBox="0 0 195 41" fill="none" xmlns="http://www.w3.org/2000/svg">
<g clip-path="url(#clip0_194:847)">
<path d="M12.1902 40.9981C9.15473 40.9981 6.41893 39.9009 4.27494 37.8254C1.51679 35.1553 0 31.1438 0 26.5302C0 21.1411 2.79722 16.4878 4.84071 13.0909L5.15338 12.5684C5.36554 12.2141 5.77126 12.0134 6.19001 12.0586C6.60875 12.102 6.96237 12.3804 7.09263 12.7709C8.43822 16.8006 10.4984 19.9117 12.3149 22.6561C14.3602 25.7456 16.1264 28.4139 16.1264 31.366C16.1264 33.7615 14.3509 35.4988 11.9054 35.4988C10.4835 35.4988 9.1752 34.9059 8.11624 33.785C6.05973 31.6047 5.19617 27.6911 5.42882 25.1149C5.48093 24.5435 6.00017 24.1205 6.58642 24.171C7.17453 24.2216 7.60816 24.7242 7.55791 25.2956C7.36621 27.4143 8.12926 30.7261 9.69258 32.3821C10.3533 33.0817 11.0772 33.4234 11.9073 33.4234C13.1933 33.4234 13.9917 32.6351 13.9917 31.366C13.9917 29.0232 12.4582 26.7091 10.5189 23.7786C8.95559 21.4177 7.2192 18.7946 5.855 15.5297C4.08696 18.5505 2.13468 22.3705 2.13468 26.5302C2.13468 30.5887 3.42999 34.0778 5.78242 36.3557C7.51697 38.0352 9.73168 38.9228 12.1902 38.9228C12.2013 38.9228 12.2107 38.9228 12.22 38.9228C16.3869 38.9102 19.5304 35.7899 19.5304 31.6645C19.5304 27.4594 17.1482 23.8564 14.846 20.3709C12.568 16.9235 10.2118 13.3603 10.1988 9.23301C10.1988 5.70956 11.9426 2.50609 15.1084 0.206543C15.5532 -0.115251 16.1766 -0.0555936 16.5451 0.347552C19.0464 3.07194 31.5251 17.1694 31.5568 27.1666C31.5735 32.3135 29.5635 36.7823 26.0424 39.4271C25.6906 39.6911 25.2066 39.7165 24.8271 39.4905C24.4492 39.2626 24.2538 38.8326 24.3394 38.4076C24.9387 35.4284 25.0448 34.5189 25.0448 32.3225C25.0448 25.9463 21.4492 20.1775 18.2778 15.0904C17.3659 13.6278 16.5061 12.2485 15.7542 10.898C15.4731 10.3936 15.6667 9.76451 16.1859 9.49153C16.7033 9.21854 17.3529 9.40656 17.6338 9.91095C18.3616 11.2162 19.2084 12.5757 20.1054 14.0165C23.4219 19.3368 27.1813 25.3677 27.1813 32.3242C27.1813 33.55 27.1497 34.4159 27.0287 35.412C28.5827 33.2119 29.4313 30.3501 29.4203 27.1738C29.3978 20.2444 22.1266 9.72112 15.6258 2.47536C14.1499 3.75169 12.3353 5.98255 12.3353 9.23301C12.3465 12.751 14.4347 15.9093 16.6438 19.2519C19.1135 22.9887 21.6669 26.8519 21.6669 31.6662C21.6669 36.8836 17.5204 40.9838 12.2274 41C12.2162 40.9983 12.2032 40.9981 12.1902 40.9981Z" fill="white"/>
</g>
<path d="M44.2131 26.4826L46.5727 25.3781C47.2086 27.0349 48.355 27.8632 50.0117 27.8632C50.815 27.8632 51.4509 27.654 51.9195 27.2357C52.4048 26.8173 52.6474 26.24 52.6474 25.5036C52.6474 24.8342 52.3713 24.2569 51.8191 23.7716C51.2835 23.2696 50.6225 22.8428 49.836 22.4914C49.0662 22.14 48.2964 21.7634 47.5266 21.3618C46.7568 20.9602 46.0958 20.3912 45.5435 19.6549C45.008 18.9018 44.7403 18.0065 44.7403 16.9689C44.7403 15.58 45.2172 14.442 46.1711 13.5551C47.1417 12.6681 48.4219 12.2247 50.0117 12.2247C50.7982 12.2247 51.5095 12.3502 52.1454 12.6012C52.798 12.8522 53.3252 13.1785 53.7268 13.5802C54.1284 13.9818 54.438 14.3667 54.6556 14.7349C54.8899 15.0863 55.074 15.4461 55.2078 15.8142L52.8984 16.8434C52.2458 15.4712 51.2668 14.7851 49.9615 14.7851C49.2084 14.7851 48.6144 14.9942 48.1793 15.4126C47.7442 15.8142 47.5266 16.3247 47.5266 16.9438C47.5266 17.4793 47.7191 17.9647 48.104 18.3998C48.5056 18.8181 48.9993 19.1612 49.585 19.4289C50.1707 19.6967 50.8066 20.0063 51.4927 20.3577C52.1956 20.7091 52.8399 21.0773 53.4256 21.4622C54.0113 21.8304 54.4966 22.3491 54.8815 23.0185C55.2831 23.6712 55.484 24.4326 55.484 25.3028C55.484 26.8089 54.9735 28.0473 53.9527 29.0179C52.9486 29.9718 51.5931 30.4487 49.8862 30.4487C49.0327 30.4487 48.2629 30.3232 47.5768 30.0722C46.8907 29.8045 46.3217 29.4614 45.8699 29.043C45.4348 28.6079 45.0833 28.1896 44.8156 27.7879C44.5646 27.3696 44.3637 26.9344 44.2131 26.4826Z" fill="white"/>
<path d="M64.3367 16.6928C65.9098 16.6928 67.0645 17.22 67.8008 18.2742C68.5371 19.3285 68.9053 20.6506 68.9053 22.2404V30.1224H66.1943V22.0145C66.1943 21.1275 65.9433 20.433 65.4412 19.931C64.9559 19.4122 64.3284 19.1528 63.5586 19.1528C62.7051 19.1528 62.0106 19.4373 61.4751 20.0063C60.9396 20.5753 60.6718 21.3116 60.6718 22.2153V30.1224H57.9357V11.9736H60.6718V18.7261C60.9898 18.1571 61.4751 17.6802 62.1278 17.2953C62.7804 16.8936 63.5167 16.6928 64.3367 16.6928Z" fill="white"/>
<path d="M72.964 28.541C71.7089 27.2691 71.0813 25.6291 71.0813 23.621C71.0813 21.6128 71.6922 19.9561 72.9138 18.6508C74.1354 17.3455 75.6499 16.6928 77.4573 16.6928C79.4152 16.6928 80.9548 17.3204 82.076 18.5755C83.1973 19.8138 83.7579 21.4706 83.7579 23.5457C83.7579 23.8469 83.7495 24.0728 83.7328 24.2234H73.8677C73.8844 25.3781 74.2693 26.3069 75.0224 27.0098C75.7922 27.7126 76.7628 28.064 77.9342 28.064C79.5073 28.064 80.7122 27.4532 81.5489 26.2316L83.3562 27.5871C82.9379 28.3067 82.2685 28.9677 81.3481 29.5702C80.4277 30.1559 79.273 30.4487 77.884 30.4487C75.8591 30.4487 74.2191 29.8128 72.964 28.541ZM73.9681 22.3408H80.9715C80.9213 21.2865 80.5699 20.4665 79.9173 19.8808C79.2646 19.2783 78.453 18.9771 77.4824 18.9771C76.5285 18.9771 75.7252 19.2867 75.0726 19.9059C74.4199 20.5083 74.0517 21.32 73.9681 22.3408Z" fill="white"/>
<path d="M85.9549 30.1224V11.9736H88.691V30.1224H85.9549Z" fill="white"/>
<path d="M91.7646 30.1224V11.9736H94.5008V30.1224H91.7646Z" fill="white"/>
<path d="M104.176 30.1224V12.551H109.271C110.928 12.551 112.275 13.0363 113.313 14.0069C114.367 14.9775 114.894 16.2493 114.894 17.8224C114.894 19.3787 114.359 20.6589 113.288 21.663C112.233 22.6671 110.903 23.1691 109.296 23.1691H106.962V30.1224H104.176ZM106.962 20.7342H108.945C109.865 20.7342 110.61 20.4665 111.179 19.931C111.748 19.3955 112.033 18.6926 112.033 17.8224C112.033 16.9689 111.748 16.2828 111.179 15.764C110.61 15.2453 109.874 14.9859 108.97 14.9859H106.962V20.7342Z" fill="white"/>
<path d="M123.489 16.6928V19.454C121.029 19.454 119.799 21.1275 119.799 24.4745V30.1224H117.063V17.0191H119.749V19.0775C120.016 18.3914 120.485 17.8224 121.154 17.3706C121.824 16.9187 122.602 16.6928 123.489 16.6928Z" fill="white"/>
<path d="M128.388 20.4079C127.618 21.2447 127.233 22.3073 127.233 23.5959C127.233 24.8845 127.618 25.9471 128.388 26.7838C129.174 27.6038 130.178 28.0138 131.4 28.0138C132.621 28.0138 133.625 27.5955 134.412 26.7587C135.215 25.922 135.617 24.8593 135.617 23.5708C135.617 22.2822 135.215 21.2196 134.412 20.3828C133.625 19.5461 132.621 19.1277 131.4 19.1277C130.178 19.1277 129.174 19.5545 128.388 20.4079ZM124.472 23.5959C124.472 21.6212 125.133 19.9812 126.455 18.6759C127.777 17.3538 129.425 16.6928 131.4 16.6928C133.408 16.6928 135.065 17.3455 136.37 18.6508C137.692 19.9561 138.353 21.5961 138.353 23.5708C138.353 25.5455 137.692 27.1855 136.37 28.4908C135.048 29.7961 133.391 30.4487 131.4 30.4487C129.392 30.4487 127.735 29.8044 126.43 28.5159C125.124 27.2273 124.472 25.5873 124.472 23.5959Z" fill="white"/>
<path d="M140.846 17.0191V14.283H143.557V17.0191H146.218V19.2783H143.557V25.3781C143.557 26.3487 143.733 27.0098 144.085 27.3612C144.436 27.6959 145.005 27.8632 145.791 27.8632L146.319 27.8381V30.1977C146.001 30.2647 145.557 30.2981 144.988 30.2981C143.482 30.2981 142.411 29.8379 141.775 28.9175C141.156 27.9971 140.846 26.6751 140.846 24.9514V19.2783H139.39V17.0191H140.846Z" fill="white"/>
<path d="M151.627 20.4079C150.857 21.2447 150.472 22.3073 150.472 23.5959C150.472 24.8845 150.857 25.9471 151.627 26.7838C152.413 27.6038 153.417 28.0138 154.639 28.0138C155.86 28.0138 156.864 27.5955 157.651 26.7587C158.454 25.922 158.856 24.8593 158.856 23.5708C158.856 22.2822 158.454 21.2196 157.651 20.3828C156.864 19.5461 155.86 19.1277 154.639 19.1277C153.417 19.1277 152.413 19.5545 151.627 20.4079ZM147.711 23.5959C147.711 21.6212 148.372 19.9812 149.694 18.6759C151.016 17.3538 152.664 16.6928 154.639 16.6928C156.647 16.6928 158.304 17.3455 159.609 18.6508C160.931 19.9561 161.592 21.5961 161.592 23.5708C161.592 25.5455 160.931 27.1855 159.609 28.4908C158.287 29.7961 156.63 30.4487 154.639 30.4487C152.631 30.4487 150.974 29.8044 149.669 28.5159C148.363 27.2273 147.711 25.5873 147.711 23.5959Z" fill="white"/>
<path d="M174.252 18.2993L173.423 20.6087C172.436 19.6549 171.281 19.1779 169.959 19.1779C168.738 19.1779 167.742 19.5963 166.972 20.433C166.202 21.2698 165.817 22.3157 165.817 23.5708C165.817 24.8259 166.219 25.8802 167.022 26.7336C167.842 27.5871 168.855 28.0138 170.06 28.0138C171.265 28.0138 172.403 27.5285 173.474 26.5579L174.252 28.8171C173.03 29.9049 171.583 30.4487 169.909 30.4487C167.918 30.4487 166.278 29.7961 164.989 28.4908C163.7 27.1855 163.056 25.5455 163.056 23.5708C163.056 21.6128 163.709 19.9812 165.014 18.6759C166.319 17.3538 167.943 16.6928 169.884 16.6928C171.557 16.6928 173.013 17.2283 174.252 18.2993Z" fill="white"/>
<path d="M179.548 20.4079C178.778 21.2447 178.393 22.3073 178.393 23.5959C178.393 24.8845 178.778 25.9471 179.548 26.7838C180.334 27.6038 181.338 28.0138 182.56 28.0138C183.782 28.0138 184.786 27.5955 185.572 26.7587C186.375 25.922 186.777 24.8593 186.777 23.5708C186.777 22.2822 186.375 21.2196 185.572 20.3828C184.786 19.5461 183.782 19.1277 182.56 19.1277C181.338 19.1277 180.334 19.5545 179.548 20.4079ZM175.632 23.5959C175.632 21.6212 176.293 19.9812 177.615 18.6759C178.937 17.3538 180.585 16.6928 182.56 16.6928C184.568 16.6928 186.225 17.3455 187.53 18.6508C188.852 19.9561 189.513 21.5961 189.513 23.5708C189.513 25.5455 188.852 27.1855 187.53 28.4908C186.208 29.7961 184.551 30.4487 182.56 30.4487C180.552 30.4487 178.895 29.8044 177.59 28.5159C176.284 27.2273 175.632 25.5873 175.632 23.5959Z" fill="white"/>
<path d="M191.781 30.1224V11.9736H194.517V30.1224H191.781Z" fill="white"/>
<defs>
<clipPath id="clip0_194:847">
<rect width="31.7959" height="41" fill="white"/>
</clipPath>
</defs>
</svg>
